<svg id="Calque_1" data-name="Calque 1" xmlns="http://www.w3.org/2000/svg" viewBox="0 0 707.83 180.46"><defs><style>.cls-1{fill:#fff;}</style></defs><title>Surveez</title><path class="cls-1" d="M233,280.44H151.55c-5.92,0-6.32-.41-6.33-6.25,0-7.86-.05-15.73,0-23.59,0-4.34.95-5.23,5.2-5.23h165.9c4.63,0,5.23.64,5.24,5.42v24.33c0,4.85-.47,5.31-5.25,5.32Zm80.4-26.68H153.6v18.66H313.42Z" transform="translate(-74.35 -99.98)"/><path class="cls-1" d="M351.19,198.87l14.28-4c1.28,7.09,4.28,12.63,10.94,15.44a22.37,22.37,0,0,0,16.16.63c5.33-1.8,8.32-5.62,8.42-10.46a11.32,11.32,0,0,0-8.16-10.69c-5.51-1.65-11.2-2.68-16.82-3.94-13.19-3-20.86-12.17-20.74-24.86.09-10.05,8.19-20.46,18.47-23.85a36.35,36.35,0,0,1,23.86.17c9.36,3.26,15,10,17.32,20l-12.85,4.19a7,7,0,0,1-.79-1.41c-2.88-11.22-16-14.63-25-9.46-4.32,2.46-6.53,6.21-6,11.3a9.85,9.85,0,0,0,7.57,9c6.49,1.81,13.21,2.75,19.67,4.64,12.19,3.57,19.1,13.12,18.49,25.15-.38,7.56-3.91,13.64-9.81,18.23-13.86,10.76-40.61,8.62-50.35-8.6C353.83,206.9,352.8,203,351.19,198.87Z" transform="translate(-74.35 -99.98)"/><path class="cls-1" d="M224,137.38H151c-5,0-5.74-.78-5.76-5.79V108c0-4.26,1.07-5.25,5.22-5.25H296.05c6.24,0,7,.74,7,7V131.5c0,5.06-1,5.94-6.06,5.94Zm70.77-26.45H153.64v18.13H294.75Z" transform="translate(-74.35 -99.98)"/><path class="cls-1" d="M215.57,150.23h63.79c4.56,0,5.32.74,5.34,5.36v24.7c0,4.78-.88,5.59-5.57,5.59H151.92c-4.71,0-6.51-1.55-6.6-6.31q-.23-12,0-24c.08-4.18,1.52-5.38,5.72-5.38Zm61,8.08h-123v19.4h123Z" transform="translate(-74.35 -99.98)"/><path class="cls-1" d="M215.42,199.34h63.33c5.33,0,5.92.61,5.93,5.9v21c0,4.1-1,5.06-5,5.06H151.49c-4.56,0-6.18-1.62-6.26-6.26q-.15-9.93,0-19.89c.07-4.58,1.4-5.8,6.08-5.81Zm-62.67,24.35h124.3V207H152.75Z" transform="translate(-74.35 -99.98)"/><path class="cls-1" d="M616.82,197.85c-1,6.8,5.12,13.15,10.87,14.74,8.25,2.29,15.18-1,19.85-9.77l11.61,3.73c-3.17,11.6-13.46,18.87-26.59,19A29.86,29.86,0,0,1,602.48,200c-2.52-17.69,5.82-32.4,21.06-36.59,14.71-4,34.83,2.14,36.44,26.89.49,7.48.46,7.49-6.85,7.49H616.82Zm28.29-10.73c.31-7.45-5.52-12.75-13.92-12.8-7.72,0-14.13,5.81-14,12.8Z" transform="translate(-74.35 -99.98)"/><path class="cls-1" d="M713.51,202.84l11.63,3.79c-2.62,8.25-7.73,13.87-15.49,16.83-20.31,7.74-40.68-5.7-41.68-27.37-.74-16,7.3-28.56,21-32.52,14.24-4.11,34.31,1.49,36.62,24.93.28,2.89,0,5.84,0,9.21H682.54a14.84,14.84,0,0,0,10.83,14.79C701.38,214.92,708,211.79,713.51,202.84Zm-30.48-16h28.35c-1.49-8.62-7.14-13.15-15.21-12.5-7.64.67-13.19,6-13.14,12.55Z" transform="translate(-74.35 -99.98)"/><path class="cls-1" d="M442.56,164.17v27.77c0,2.94-.14,5.91.09,8.84.65,8,4.91,11.84,12.65,11.6,6.75-.2,11.3-4.92,11.41-12.32.16-10.56.06-21.12.07-31.69v-4.18h14.31v59.45c-3.64,0-7.58.36-11.37-.21-1.2-.18-2-2.88-3.09-4.58a20.65,20.65,0,0,1-13.07,6.26c-13,1.4-23.57-5.6-24.66-18.48-1.18-14-.27-28.15-.27-42.46Z" transform="translate(-74.35 -99.98)"/><path class="cls-1" d="M763.75,176.73H734.64V164.18h46.93c.41,6.35,1.06,12-4.18,17.38-8.9,9.08-16.88,19.07-25.72,29.24h30.51v12.57H734c-.63-6.66-.8-12.6,4.71-18.15C747.33,196.5,755,186.87,763.75,176.73Z" transform="translate(-74.35 -99.98)"/><path class="cls-1" d="M597.48,164,580.87,206.5c-1.83,4.68-3.81,9.31-5.48,14.05-.8,2.29-1.85,3.41-4.45,3.19-3.65-.31-8.12,1-10.78-.72-2.47-1.58-3.09-6.15-4.42-9.43q-9.32-22.83-18.56-45.69c-.41-1-.77-2-1.45-3.83,5.19,0,10-.12,14.8.13.69,0,1.51,1.72,1.91,2.78,4.4,11.71,8.73,23.45,13.08,35.18.38,1,.78,2,1.53,4,.71-1.79,1.14-2.81,1.52-3.86,4.17-11.53,8.47-23,12.42-34.63,1-3,2.55-4,5.57-3.76C590,164.13,593.38,164,597.48,164Z" transform="translate(-74.35 -99.98)"/><path class="cls-1" d="M512.57,223.5h-14V164c4,0,8-.1,11.93.1.61,0,1.52,1.34,1.66,2.16a42.92,42.92,0,0,1,.08,6c5.81-7.45,12.53-9.89,20.76-8.6v14.5c-1.31-.09-2.41-.2-3.5-.23-10.79-.31-16.82,5.45-16.91,16.25-.08,8.47,0,16.93,0,25.4Z" transform="translate(-74.35 -99.98)"/><path class="cls-1" d="M96.3,169.1l14.29-17.33c3.6-4.35,6.6-4.7,11-1.3,1.07.82,2.13,1.66,3.15,2.55,3.75,3.3,4.18,6.4,1.06,10.22q-11,13.56-22.31,26.92c-3.26,3.86-6.29,4.15-10.2,1.08-5.3-4.18-10.56-8.4-15.72-12.74-4-3.39-4.2-6.25-1-10.48q1.35-1.76,2.79-3.42c3.09-3.55,6.12-3.86,10-1,1.19.87,2.31,1.82,3.46,2.74Zm.58,5.67c-3.28-2.62-6.47-5.06-9.55-7.64-2-1.72-3.68-1.62-5.23.55A18.51,18.51,0,0,1,80.24,170c-2.23,2.25-2,4.08.54,6q7.27,5.61,14.29,11.57c2.48,2.12,4.09,1.65,6-.76,6.83-8.35,13.68-16.68,20.68-24.87,2.24-2.62,2.38-4.33-.51-6.55-4.84-3.71-5.1-3.91-8-.41C107.85,161.44,102.49,168,96.88,174.77Z" transform="translate(-74.35 -99.98)"/><path class="cls-1" d="M96.3,220.66c4.71-5.73,9.22-11.22,13.74-16.7,4.33-5.26,7-5.56,12.35-1.31,1,.84,2.12,1.67,3.09,2.6,2.79,2.68,3.26,5.84.8,8.87q-11.53,14.31-23.48,28.38c-2.52,3-5.73,3.22-8.86.79-5.82-4.5-11.56-9.13-17.16-13.9-3-2.57-3.11-5.53-.87-8.87.14-.2.29-.39.44-.59,6.21-8.42,8.31-8.68,16.42-2.07C93.81,218.68,94.86,219.5,96.3,220.66Zm.54,5.67c-3.63-2.92-6.71-5.36-9.74-7.84-1.76-1.43-3.31-1.37-4.74.44A35.18,35.18,0,0,1,80,221.78c-2.18,2.23-1.63,3.93.68,5.73,4.65,3.6,9.17,7.38,13.74,11.09,3.44,2.79,4.06,2.77,6.85-.57q9.54-11.44,19-22.94c4.54-5.48,4.54-5.48-1.07-9.76-.2-.15-.39-.29-.58-.45-1.62-1.39-3.09-1.21-4.43.42-.85,1-1.73,2.07-2.59,3.11C106.75,214.32,101.88,220.23,96.84,226.33Z" transform="translate(-74.35 -99.98)"/><path class="cls-1" d="M96.31,120.9c4.91-6,9.47-11.57,14.13-17.11,4-4.71,6.79-5,11.58-1.19,1.16.91,2.32,1.83,3.39,2.83,2.81,2.62,3.36,5.92,1,8.87q-11.75,14.43-23.8,28.58c-2.35,2.77-5.67,3-8.6.72q-8.72-6.76-17.15-13.9c-3-2.56-3.2-5.58-1-8.86l.22-.3c6.13-8.73,8.61-9.07,16.93-2.28C94,119.11,95.08,119.92,96.31,120.9Zm.56,5.67c-3.46-2.77-6.63-5.27-9.75-7.82-1.75-1.42-3.29-1.44-4.73.42A35.13,35.13,0,0,1,80.05,122c-2.13,2.21-1.7,3.91.66,5.74Q88,133.37,95,139.33c2.42,2.07,4.08,1.79,6.07-.67q10.19-12.6,20.68-24.93c2.19-2.57,2.56-4.28-.42-6.55-5.07-3.87-5-4.06-8-.56C108,113.12,102.59,119.65,96.87,126.57Z" transform="translate(-74.35 -99.98)"/></svg>